Motion_pl05
version=1
nRows=16
nColumns=43
inDegrees=yes
endheader
time	pelvis_tilt	pelvis_list	pelvis_rotation	pelvis_tx	pelvis_ty	pelvis_tz	hip_flexion_r	hip_adduction_r	hip_rotation_r	knee_angle_r	ankle_angle_r	subtalar_angle_r	mtp_angle_r	hip_flexion_l	hip_adduction_l	hip_rotation_l	knee_angle_l	ankle_angle_l	subtalar_angle_l	mtp_angle_l	lumbar_extension	lumbar_bending	lumbar_rotation	neck_flexion	neck_lateral_bending	neck_rotation	arm_flex_r	arm_add_r	arm_rot_r	elbow_flex_r	pro_sup_r	wrist_flex_r	wrist_dev_r	hand_finger_flex_r	arm_flex_l	arm_add_l	arm_rot_l	elbow_flex_l	pro_sup_l	wrist_flex_l	wrist_dev_l	hand_finger_flex_l
      1.33000000	      1.38198540	     -5.55300424	     84.90565750	      0.00067704	      1.37759527	      0.77693590	     39.16127273	      0.98498329	     -3.98597544	    -29.79772120	    -20.19147882	      2.90676374	      2.84493606	     34.70067202	     -8.80408997	    -11.32140405	    -23.60632691	    -23.72128352	      9.25263285	     25.84570888	    -33.00448245	      1.99686260	      0.83364513	    -14.82200837	     -5.96152789	      5.96863284	    -33.26059726	    -29.89011662	     -5.59470216	     72.80108549	    144.91040056	      3.98352354	      1.46622035	    -28.40750520	    -39.44571534	    -26.68988523	    -12.39165620	     71.96413786	    128.26014413	     -5.99836714	    -10.16192286	     16.58456535
      1.33250000	      1.35816808	     -5.43875028	     84.84045737	      0.00046770	      1.36835252	      0.77115025	     38.81920745	      0.92695610	     -4.09056595	    -29.32377813	    -20.36078331	      3.06231579	      2.80011778	     34.35312954	     -8.82877314	    -11.59320492	    -23.32966393	    -23.82969760	      9.36483887	     25.85468604	    -32.66655772	      1.97525179	      0.87953496	    -15.75078340	     -5.96298071	      5.92358271	    -34.86098532	    -29.83246091	     -6.19916173	     73.24768855	    144.67495992	      3.91773676	      1.37502977	    -28.49337665	    -41.06798332	    -26.48617289	    -12.83717102	     72.30883061	    128.18580980	     -6.17191184	    -10.34945559	     16.51412285
      1.33500000	      1.33549189	     -5.33418135	     84.82257604	      0.00021038	      1.35902835	      0.76538897	     38.47404923	      0.86167193	     -4.18230631	    -28.82750600	    -20.51135609	      3.19475252	      2.75739116	     34.02439291	     -8.82137972	    -11.83494182	    -23.04803268	    -23.93722474	      9.43952870	     25.85883647	    -32.32261334	      1.97317706	      0.91223371	    -16.59908949	     -5.98769615	      5.89993029	    -36.46645676	    -29.82477175	     -6.68564186	     73.70017437	    144.47105179	      3.81870582	      1.28603148	    -28.57252315	    -42.68100455	    -26.32019088	    -13.26091825	     72.73552910	    128.08284367	     -6.33140006	    -10.53618211	     16.46328332
      1.33750000	      1.31540255	     -5.18493009	     84.70191175	      0.00007165	      1.34974685	      0.75948388	     38.10379868	      0.82625658	     -4.33178914	    -28.40262403	    -20.63121207	      3.38931228	      2.71295701	     33.64649726	     -8.88000226	    -12.11641211	    -22.83299083	    -24.09464586	      9.55062317	     25.86402528	    -32.00648556	      1.93193215	      0.91773008	    -17.60731755	     -5.96348186	      5.81628408	    -38.02732210	    -29.70753678	     -7.36975365	     74.19204573	    144.16360643	      3.70825975	      1.19004971	    -28.66654333	    -44.32240464	    -26.01786320	    -13.77170605	     73.02553662	    127.96667301	     -6.51280462	    -10.70860558	     16.39690245
      1.34000000	      1.29266009	     -5.03833414	     84.61421470	     -0.00005567	      1.34038794	      0.75363069	     37.72057043	      0.78107075	     -4.45624356	    -27.94806585	    -20.72987622	      3.60308637	      2.66807192	     33.27451563	     -8.92078810	    -12.39791868	    -22.60581435	    -24.24484634	      9.65797697	     25.86844901	    -31.70103541	      1.89789700	      0.93819315	    -18.54383486	     -5.96781740	      5.73534020	    -39.61548247	    -29.61799509	     -7.96943324	     74.69858212	    143.85234372	      3.60561279	      1.06830277	    -28.75855444	    -45.95060413	    -25.76298038	    -14.25365583	     73.38139060	    127.85404593	     -6.66494662	    -10.89850979	     16.34852109
      1.34250000	      1.27106972	     -4.87941925	     84.52922705	     -0.00021739	      1.33099602	      0.74776975	     37.32282075	      0.72977453	     -4.57469486	    -27.50628996	    -20.81566183	      3.84460458	      2.62283085	     32.89732527	     -8.95826789	    -12.68161234	    -22.39836763	    -24.39938745	      9.76380546	     25.87220378	    -31.41774382	      1.86812533	      0.95943577	    -19.47668407	     -5.97521403	      5.65425552	    -41.20294788	    -29.52917020	     -8.57198798	     75.21603473	    143.52859075	      3.48133636	      0.95116710	    -28.86119237	    -47.57587627	    -25.48737767	    -14.74988306	     73.74429692	    127.74162622	     -6.80832694	    -11.08346468	     16.31250769
      1.34500000	      1.24908919	     -4.70473808	     84.44697922	     -0.00039879	      1.32153041	      0.74191623	     36.93192776	      0.67364101	     -4.67891291	    -27.09357014	    -20.91086116	      4.09701065	      2.57954866	     32.51781900	     -8.99162380	    -12.94400802	    -22.23080562	    -24.55348625	      9.85519247	     25.87460619	    -31.13948312	      1.85233612	      0.94959167	    -20.38197298	     -5.98270678	      5.58772835	    -42.78510569	    -29.44543205	     -9.14523616	     75.76226856	    143.22823573	      3.31896766	      0.84675953	    -28.97339581	    -49.19288899	    -25.20071735	    -15.23836779	     74.12927326	    127.63559389	     -6.94406844	    -11.25597488	     16.29399627
      1.34750000	      1.23113166	     -4.53471009	     84.39401867	     -0.00062577	      1.31201359	      0.73608271	     36.53999546	      0.60520831	     -4.76602520	    -26.72075659	    -21.01871917	      4.36106363	      2.54113940	     32.17408651	     -9.01848676	    -13.18892944	    -22.09166477	    -24.70351828	      9.93443798	     25.87604069	    -30.89180148	      1.83603924	      0.94346058	    -21.25858160	     -5.99357754	      5.53822072	    -44.36464527	    -29.36931192	     -9.70269224	     76.28993545	    142.95612640	      3.13047223	      0.76555026	    -29.08885880	    -50.79127135	    -24.90347056	    -15.73360151	     74.49802935	    127.54004771	     -7.07728556	    -11.40398719	     16.29190218
      1.35000000	      1.20242391	     -4.34827917	     84.27824454	     -0.00080050	      1.30255814	      0.73009722	     36.06516652	      0.53470880	     -4.90838539	    -26.23198502	    -21.00731133	      4.86165051	      2.51365492	     31.73884280	     -9.06253707	    -13.55764245	    -21.87941296	    -24.84450461	     10.08762138	     25.88536527	    -30.63741811	      1.79454344	      1.03192840	    -22.18373764	     -6.00733472	      5.40711969	    -45.94647790	    -29.17030960	    -10.37674160	     76.78718975	    142.50412166	      2.97956351	      0.65841597	    -29.23151060	    -52.29976865	    -24.53600445	    -16.28529361	     74.82053306	    127.53130192	     -7.14971452	    -11.54363922	     16.36647258
      1.35250000	      1.17268312	     -4.16299288	     84.23911020	     -0.00103071	      1.29290031	      0.72436955	     35.72601971	      0.44828288	     -4.95159015	    -25.96523422	    -21.19839506	      5.10903244	      2.47519302	     31.43030835	     -9.07149241	    -13.73488930	    -21.84912856	    -24.97467900	     10.14690433	     25.88845916	    -30.42630285	      1.77707330	      0.96336158	    -22.96977274	     -6.01944200	      5.39229029	    -47.48714168	    -29.10857173	    -10.88461608	     77.40248934	    142.29532990	      2.74002051	      0.58493168	    -29.36318187	    -53.88674659	    -24.25011699	    -16.74516268	     75.21267618	    127.47496928	     -7.25728436	    -11.65881435	     16.40945954
      1.35500000	      1.12566765	     -4.10713776	     84.18342764	     -0.00115187	      1.28301984	      0.71873429	     35.40170743	      0.39237966	     -5.00675831	    -25.44269431	    -21.32383122	      5.24907229	      2.44930452	     31.19720433	     -9.06209348	    -13.85364356	    -21.67648160	    -25.05310462	     10.16875121	     25.88817510	    -30.10125244	      1.72922258	      0.85673571	    -23.46270530	     -6.04152405	      5.38697997	    -48.92794560	    -29.09654615	    -11.24572655	     77.94821364	    142.18213188	      2.53519243	      0.51768336	    -29.45711164	    -55.46557066	    -24.05730016	    -17.05962898	     75.56208989	    127.41934719	     -7.32853453	    -11.76802349	     16.44285688
      1.35750000	      1.09968465	     -3.96486624	     84.16790982	     -0.00139310	      1.27313749	      0.71306552	     35.09004577	      0.30261399	     -5.05857650	    -25.14273818	    -21.55473396	      5.48151303	      2.41798673	     30.94776771	     -9.07169156	    -14.01742887	    -21.65686947	    -25.17891701	     10.20671734	     25.88780254	    -29.84739362	      1.72458284	      0.81278176	    -24.24861821	     -6.07500684	      5.39745876	    -50.48939657	    -28.96630691	    -11.78534033	     78.56574849	    142.02615440	      2.26317428	      0.47458138	    -29.57779722	    -57.01317547	    -23.71083461	    -17.59615672	     75.98506766	    127.32739555	     -7.46402336	    -11.85854444	     16.47237992
      1.36000000	      1.07674564	     -3.83988033	     84.11986148	     -0.00154577	      1.26323513	      0.70738179	     34.79895642	      0.23572799	     -5.14197315	    -24.85555767	    -21.78219207	      5.74783921	      2.39418059	     30.70818639	     -9.09865395	    -14.17674468	    -21.65011991	    -25.29365132	     10.25115467	     25.88803557	    -29.58534390	      1.70454800	      0.79072388	    -24.99638060	     -6.11192189	      5.39102370	    -51.96068302	    -28.75923582	    -12.36328105	     79.12071291	    141.86244380	      2.00276565	      0.45259890	    -29.69246683	    -58.48253683	    -23.32326796	    -18.14217520	     76.30743696	    127.25684620	     -7.56661973	    -11.91120267	     16.52504647
      1.36250000	      1.12020336	     -3.72201113	     83.96363174	     -0.00181529	      1.25344670	      0.70134853	     34.49840636	      0.19137226	     -5.40528419	    -24.60964528	    -21.94784814	      6.72283972	      2.47877642	     30.41551651	     -9.26733729	    -14.62598283	    -21.66469910	    -25.34749635	     10.48886519	     25.90897116	    -29.27846795	      1.75689539	      1.11092202	    -26.07988228	     -6.20097140	      5.11981755	    -53.52611178	    -28.15790100	    -13.41043280	     79.50657904	    141.39310517	      1.89987856	      0.41635567	    -29.79704682	    -59.62015524	    -22.69405196	    -18.96373879	     76.51800006	    127.53646219	     -7.23054283	    -11.80409403	     17.04648279
      1.36500000	      1.07745184	     -3.60837839	     83.97854626	     -0.00176847	      1.24335661	      0.69593078	     34.25947168	      0.12633967	     -5.40539937	    -24.36755445	    -22.20339214	      6.82950016	      2.45549888	     30.22924357	     -9.26562899	    -14.69020030	    -21.67928052	    -25.42312690	     10.51478599	     25.90993246	    -29.06341971	      1.70284069	      0.99483361	    -26.49989026	     -6.26525082	      5.14185548	    -54.87243844	    -28.04323340	    -13.74295811	     80.07605762	    141.32326177	      1.71985469	      0.33038951	    -29.87597343	    -61.06178902	    -22.53133076	    -19.34286764	     76.86335013	    127.50751350	     -7.25323215	    -11.89809623	     17.12857978
      1.36750000	      1.04922182	     -3.47606304	     83.96674164	     -0.00204676	      1.23325849	      0.69043176	     34.03063069	      0.04166865	     -5.44643133	    -24.20302268	    -22.51539475	      6.98559605	      2.43801658	     30.03826169	     -9.27289048	    -14.79607643	    -21.77064570	    -25.51422300	     10.54515641	     25.91043950	    -28.85695632	      1.69840617	      0.97567114	    -27.12728230	     -6.34060600	      5.18976515	    -56.26608284	    -27.77777998	    -14.31913037	     80.60396135	    141.23026861	      1.50089065	      0.31002248	    -29.96668829	    -62.40635452	    -22.13478111	    -19.91042735	     77.23787102	    127.43852564	     -7.30124649	    -11.96556320	     17.22121384
